<svg xmlns="http://www.w3.org/2000/svg" viewBox="0 0 1440 320">
  <!-- Background wave -->
  <path fill="#fffff" fill-opacity="0.1" d="M0,192L48,197.3C96,203,192,213,288,229.3C384,245,480,267,576,250.7C672,235,768,181,864,181.3C960,181,1056,235,1152,245.3C1248,256,1344,224,1392,208L1440,192L1440,320L1392,320C1344,320,1248,320,1152,320C1056,320,960,320,864,320C768,320,672,320,576,320C480,320,384,320,288,320C192,320,96,320,48,320L0,320Z" />
  
  <!-- Middle wave -->
  <path fill="#fffff" fill-opacity="0.2" d="M0,224L48,213.3C96,203,192,181,288,181.3C384,181,480,203,576,224C672,245,768,267,864,261.3C960,256,1056,224,1152,213.3C1248,203,1344,213,1392,218.7L1440,224L1440,320L1392,320C1344,320,1248,320,1152,320C1056,320,960,320,864,320C768,320,672,320,576,320C480,320,384,320,288,320C192,320,96,320,48,320L0,320Z" />
  
  <!-- Front wave -->
  <path fill="#fffff" fill-opacity="0.3" d="M0,256L48,266.7C96,277,192,299,288,288C384,277,480,235,576,224C672,213,768,235,864,245.3C960,256,1056,256,1152,240C1248,224,1344,192,1392,176L1440,160L1440,320L1392,320C1344,320,1248,320,1152,320C1056,320,960,320,864,320C768,320,672,320,576,320C480,320,384,320,288,320C192,320,96,320,48,320L0,320Z" />
  
  <!-- Decorative circles -->
  <circle cx="1380" cy="280" r="4" fill="#fffff" fill-opacity="0.5" />
  <circle cx="1360" cy="290" r="3" fill="#fffff" fill-opacity="0.5" />
  <circle cx="1400" cy="285" r="2" fill="#fffff" fill-opacity="0.5" />
  
  <circle cx="40" cy="280" r="4" fill="#fffff" fill-opacity="0.5" />
  <circle cx="60" cy="290" r="3" fill="#fffff" fill-opacity="0.5" />
  <circle cx="20" cy="285" r="2" fill="#fffff" fill-opacity="0.5" />
</svg>